<svg xmlns="http://www.w3.org/2000/svg" viewBox="0 0 200 150" fill="none">
  <!-- Stage -->
  <rect x="30" y="80" width="140" height="40" rx="5" fill="#DFE6E9" stroke="#000" stroke-width="2"/>
  
  <!-- Curtains -->
  <path d="M30,40 Q50,60 30,80" stroke="#E74C3C" stroke-width="5" fill="#E74C3C"/>
  <path d="M45,40 Q65,60 45,80" stroke="#E74C3C" stroke-width="5" fill="#E74C3C"/>
  <path d="M60,40 Q80,60 60,80" stroke="#E74C3C" stroke-width="5" fill="#E74C3C"/>
  
  <path d="M170,40 Q150,60 170,80" stroke="#E74C3C" stroke-width="5" fill="#E74C3C"/>
  <path d="M155,40 Q135,60 155,80" stroke="#E74C3C" stroke-width="5" fill="#E74C3C"/>
  <path d="M140,40 Q120,60 140,80" stroke="#E74C3C" stroke-width="5" fill="#E74C3C"/>
  
  <!-- Curtain Rod -->
  <line x1="20" y1="40" x2="180" y2="40" stroke="#7F8C8D" stroke-width="3"/>
  <circle cx="20" cy="40" r="5" fill="#7F8C8D"/>
  <circle cx="180" cy="40" r="5" fill="#7F8C8D"/>
  
  <!-- Performers -->
  <circle cx="70" cy="70" r="10" fill="#74B9FF" stroke="#000" stroke-width="1"/>
  <line x1="70" y1="80" x2="70" y2="100" stroke="#000" stroke-width="1"/>
  <line x1="70" y1="85" x2="60" y2="95" stroke="#000" stroke-width="1"/>
  <line x1="70" y1="85" x2="80" y2="95" stroke="#000" stroke-width="1"/>
  
  <circle cx="100" cy="70" r="10" fill="#FF9FF3" stroke="#000" stroke-width="1"/>
  <line x1="100" y1="80" x2="100" y2="100" stroke="#000" stroke-width="1"/>
  <line x1="100" y1="85" x2="90" y2="95" stroke="#000" stroke-width="1"/>
  <line x1="100" y1="85" x2="110" y2="95" stroke="#000" stroke-width="1"/>
  
  <circle cx="130" cy="70" r="10" fill="#55EFC4" stroke="#000" stroke-width="1"/>
  <line x1="130" y1="80" x2="130" y2="100" stroke="#000" stroke-width="1"/>
  <line x1="130" y1="85" x2="120" y2="95" stroke="#000" stroke-width="1"/>
  <line x1="130" y1="85" x2="140" y2="95" stroke="#000" stroke-width="1"/>
  
  <!-- Spotlights -->
  <path d="M50,30 L80,70" stroke="#F1C40F" stroke-width="1" stroke-dasharray="2"/>
  <path d="M100,20 L100,70" stroke="#F1C40F" stroke-width="1" stroke-dasharray="2"/>
  <path d="M150,30 L120,70" stroke="#F1C40F" stroke-width="1" stroke-dasharray="2"/>
  
  <circle cx="50" cy="30" r="5" fill="#F1C40F" stroke="#000" stroke-width="1"/>
  <circle cx="100" cy="20" r="5" fill="#F1C40F" stroke="#000" stroke-width="1"/>
  <circle cx="150" cy="30" r="5" fill="#F1C40F" stroke="#000" stroke-width="1"/>
  
  <!-- Audience -->
  <ellipse cx="100" cy="130" rx="60" ry="10" fill="#34495E" stroke="#000" stroke-width="1"/>
</svg>